<?xml version="1.0" encoding="utf-8"?>
<!-- Generator: Adobe Illustrator 19.2.1, SVG Export Plug-In . SVG Version: 6.00 Build 0)  -->
<svg version="1.1" id="Layer_1" xmlns="http://www.w3.org/2000/svg" xmlns:xlink="http://www.w3.org/1999/xlink" x="0px" y="0px"
	 viewBox="0 0 479 479" style="enable-background:new 0 0 479 479;" xml:space="preserve">
<style type="text/css">
	.st0{fill:#E2E2E2;}
	.st1{fill:#5CC9FF;}
	.st2{fill:#E2E2E2;stroke:#FFFFFF;stroke-width:25;stroke-miterlimit:10;}
	.st3{fill:#6ADB21;}
</style>
<g>
	<rect x="0.2" y="28.1" class="st0" width="417.7" height="289.6"/>
	<rect x="44.2" y="72" class="st1" width="329.3" height="201.6"/>
	<path class="st2" d="M181.3,398.3c40.7,0,199.5,0,225.5,0c32.9,0,59.6-26.7,59.6-59.6c0-29.3-21.2-53.7-49.1-58.6
		c-0.7-42.4-35.3-76.5-77.9-76.5c-5.1,0-10.1,0.5-14.9,1.4c-14.2-19.5-37.1-32.1-63-32.1c-38.7,0-70.8,28.2-76.8,65.1
		c-1.1,0-2.2-0.1-3.3-0.1c-44.3,0-80.2,35.9-80.2,80.2C101.1,362.4,136.9,398.3,181.3,398.3z"/>
	<path class="st3" d="M366.6,318.5l-67-66.1l0,0c-4-3.9-9.5-6.4-15.7-6.4s-11.7,2.5-15.7,6.4l0,0L202,318.5
		c-4.8,4.8-7.2,10.5-7.2,16.1c0,5.7,2.4,11.4,7.2,16.2c8.1,8.9,22.6,8.9,31.5,0l28.2-28.2v105.7c0,12.1,9.7,22.6,21.8,22.6
		c12.9,0,22.6-10.5,22.6-22.6V322.5l28.2,28.2c8.9,8.9,23.4,8.9,32.3,0C374.6,341.9,374.6,327.4,366.6,318.5z"/>
</g>
</svg>
